<svg xmlns="http://www.w3.org/2000/svg" width="79.619" height="37.495" viewBox="0 0 79.619 37.495">
  <g id="Group_5" data-name="Group 5" transform="translate(0 146.842)">
    <path id="Path_4" data-name="Path 4" d="M137.079-135.833a7.577,7.577,0,0,1-5.687,5.725c-2.3.433-4.846.091-6.263-1.806-1.809-2.421-.288-6.957,3.151-6.75a2.3,2.3,0,0,1,2.113,2.946,1.471,1.471,0,0,0-1.46-.5,1.492,1.492,0,0,0-1.037,1.037,1.414,1.414,0,0,0,.346,1.345,2.765,2.765,0,0,0,2.92.115c2.169-.922,2.631-3.757,1.729-5.8-1.972-4.47-8-4.226-10.99-1a7.693,7.693,0,0,0-.653,9.414h-1.037c-4.276-4.811-2.292-12.235,3.266-14.87a10.23,10.23,0,0,1,8.146-.039c3.735,1.691,6.39,6.067,5.456,10.182" transform="translate(-87.794)" fill="#7b8686" fill-rule="evenodd"/>
    <path id="Path_5" data-name="Path 5" d="M66.971-61.076v2.419H60.7v3.845h5.182v2.041H60.7v4.408l6.8.006v2.231H56.862V-61.076Zm-29.71,0v12.719H44.19v2.231H33.464v-14.95Zm-6.739,0c.047,4.936.047,9.824,0,14.95h-3.7v-14.95Zm47.983.189v2.469c-.334-.074-3.8-1.615-5.649-.239a1.337,1.337,0,0,0,.083,1.932c1.283,1.308,2.772,1.639,4.237,2.623,1.574,1.057,2.753,2.612,2.373,4.606-.74,4.809-7.145,3.828-10.584,3.37v-2.658c1.649.577,5.686,1.985,6.5-.285.809-2.249-1.238-2.568-3.987-4.129a5.1,5.1,0,0,1-2.61-3.369,4.776,4.776,0,0,1,.047-1.661,3.887,3.887,0,0,1,3.038-2.848C74.042-61.645,76.463-61.219,78.5-60.887Zm-67.679,2.23h5.505c0,4.034-.047,8.212,0,12.531h3.7V-58.657h5.505v-2.42H10.825Zm38.111-2.419v12.719h6.929v2.231H45.139v-14.95Zm-39.25.143v2.469c-.334-.074-3.8-1.615-5.649-.239A1.336,1.336,0,0,0,4.12-56.77c1.283,1.308,2.772,1.639,4.237,2.623,1.574,1.057,2.753,2.612,2.373,4.606-.74,4.809-7.144,3.828-10.584,3.37v-2.658c1.649.577,5.686,1.985,6.5-.285.809-2.249-1.238-2.568-3.987-4.129a5.1,5.1,0,0,1-2.61-3.369A4.768,4.768,0,0,1,.1-58.274a3.886,3.886,0,0,1,3.037-2.848c2.088-.569,4.509-.143,6.55.189" transform="translate(0 -63.625)" fill="#7b8686" fill-rule="evenodd"/>
  </g>
</svg>
