<?xml version="1.0" encoding="UTF-8" standalone="no"?><!DOCTYPE svg PUBLIC "-//W3C//DTD SVG 1.1//EN" "http://www.w3.org/Graphics/SVG/1.1/DTD/svg11.dtd"><svg width="100%" height="100%" viewBox="0 0 195 30" version="1.1" xmlns="http://www.w3.org/2000/svg" xmlns:xlink="http://www.w3.org/1999/xlink" xml:space="preserve" xmlns:serif="http://www.serif.com/" style="fill-rule:evenodd;clip-rule:evenodd;stroke-linejoin:round;stroke-miterlimit:1.41421;"><rect id="Artboard1" x="0" y="0" width="194.112" height="30" style="fill:none;"/><path d="M0,0.462l0,29.077l5.539,0l0,-17.308l5.168,10.846l3.047,0l5.168,-10.846l0,17.308l5.539,0l0,-29.077l-6.462,0l-5.769,12.923l-5.768,-12.923l-6.462,0Zm40.199,29.538c-3.508,0 -7.247,-1.384 -7.247,-6.554l0,-16.891c0,-5.169 3.739,-6.555 7.247,-6.555l4.891,0c3.509,0 7.247,1.386 7.247,6.555l0,16.891c0,5.17 -3.738,6.554 -7.247,6.554l-4.891,0Zm-1.708,-21.6l0,13.2c0,2.909 1.245,3.324 3.046,3.324l2.215,0c1.799,0 3.046,-0.415 3.046,-3.324l0,-13.2c0,-2.907 -1.293,-3.276 -3.139,-3.276l-2.077,0c-1.798,0 -3.091,0.369 -3.091,3.276m38.492,-2.861l0,-5.077l-19.385,0l0,5.077l6.923,0l0,24l5.539,0l0,-24l6.923,0Zm12.505,24.461c-3.506,0 -7.244,-1.384 -7.244,-6.554l0,-16.891c0,-5.169 3.738,-6.555 7.244,-6.555l4.892,0c3.508,0 7.246,1.386 7.246,6.555l0,16.891c0,5.17 -3.738,6.554 -7.246,6.554l-4.892,0Zm-1.707,-21.6l0,13.2c0,2.909 1.246,3.324 3.045,3.324l2.216,0c1.8,0 3.047,-0.415 3.047,-3.324l0,-13.2c0,-2.907 -1.292,-3.276 -3.139,-3.276l-2.076,0c-1.801,0 -3.093,0.369 -3.093,3.276m35.491,-7.938l6.23,0l-7.292,29.308l-8.03,0l-7.293,-29.308l6.232,0l5.077,23.538l5.076,-23.538Zm13.338,29.077l5.539,0l0,-29.077l-5.539,0l0,29.077Zm31.568,-5.078l-11.078,0l0,-23.999l-5.537,0l0,29.077l16.615,0l0,-5.078Zm10.014,-24.229l-7.292,29.307l6.276,0l1.8,-8.953l6.323,0l1.938,8.953l6.278,0l-7.292,-29.307l-8.031,0Zm4.014,4.846l2.216,10.431l-4.616,0l2.4,-10.431Z" style="fill-rule:nonzero;"/></svg>