<svg xmlns="http://www.w3.org/2000/svg" width="116.338" height="54.787" viewBox="0 0 116.338 54.787">
  <g id="Group_95" data-name="Group 95" transform="translate(1 -466.842)">
    <g id="Group_1" data-name="Group 1" transform="translate(-1 466.842)">
      <path id="Path_1" data-name="Path 1" d="M145.924-130.756a11.072,11.072,0,0,1-8.309,8.365c-3.366.632-7.081.132-9.151-2.639-2.643-3.537-.42-10.165,4.6-9.863,2.364.143,3.46,2.071,3.088,4.3a2.15,2.15,0,0,0-2.134-.73,2.18,2.18,0,0,0-1.516,1.516,2.066,2.066,0,0,0,.506,1.965c1.136,1.058,2.943.731,4.267.168,3.169-1.347,3.844-5.489,2.527-8.478-2.881-6.531-11.689-6.176-16.058-1.46a11.241,11.241,0,0,0-.954,13.755h-1.516c-6.248-7.03-3.349-17.878,4.772-21.727a14.948,14.948,0,0,1,11.9-.056c5.457,2.471,9.336,8.865,7.972,14.878" transform="translate(-73.911 146.842)" fill="#a49683" fill-rule="evenodd"/>
      <path id="Path_2" data-name="Path 2" d="M97.856-60.926v3.535H88.688v5.619H96.26v2.982H88.688v6.44l9.93.009v3.259H83.084V-60.926Zm-43.412,0v18.584H64.569v3.259H48.9V-60.926Zm-9.847,0c.069,7.212.069,14.355,0,21.844H39.187V-60.926Zm70.111.276v3.608c-.488-.108-5.554-2.359-8.255-.349a1.953,1.953,0,0,0,.121,2.823c1.874,1.911,4.05,2.395,6.191,3.833,2.3,1.545,4.022,3.817,3.468,6.73-1.081,7.027-10.439,5.594-15.465,4.924v-3.883c2.409.843,8.308,2.9,9.5-.416,1.182-3.286-1.809-3.753-5.825-6.033a7.45,7.45,0,0,1-3.814-4.923,6.98,6.98,0,0,1,.069-2.427,5.679,5.679,0,0,1,4.438-4.161C108.188-61.758,111.725-61.136,114.707-60.65Zm-98.89,3.259h8.044c0,5.894-.069,12,0,18.309h5.409V-57.391l8.044,0v-3.536h-21.5ZM71.5-60.926v18.584H81.628v3.259H65.955V-60.926Zm-57.35.209v3.608c-.488-.108-5.554-2.359-8.254-.349a1.953,1.953,0,0,0,.121,2.823c1.874,1.911,4.05,2.395,6.191,3.833,2.3,1.545,4.022,3.817,3.467,6.73C14.6-37.045,5.24-38.479.214-39.149v-3.883c2.409.843,8.308,2.9,9.5-.416C10.9-46.734,7.906-47.2,3.89-49.481A7.45,7.45,0,0,1,.076-54.4a6.966,6.966,0,0,1,.069-2.427,5.679,5.679,0,0,1,4.438-4.161c3.051-.832,6.588-.209,9.57.276" transform="translate(0 93.279)" fill="#a49683" fill-rule="evenodd"/>
    </g>
  </g>
</svg>
